Coordinates
version=1
nRows=17
nColumns=33
inDegrees=yes

Units are S.I. units (second, meters, Newtons, ...)
Angles are in degrees.

endheader
time	ground_thorax_rot_x	ground_thorax_rot_y	ground_thorax_rot_z	ground_thorax_tx	ground_thorax_ty	ground_thorax_tz	clav_prot_r	clav_elev_r	scapula_abduction_r	scapula_elevation_r	scapula_upward_rot_r	scapula_winging_r	shoulder_elv_r	plane_of_elev_r	axial_rot_r	elbow_flexion_r	pro_sup_r	wrist_flex_r	wrist_dev_r	clav_prot_l	clav_elev_l	scapula_abduction_l	scapula_elevation_l	scapula_upward_rot_l	scapula_winging_l	shoulder_elv_l	plane_of_elev_l	axial_rot_l	elbow_flexion_l	pro_sup_l	wrist_flex_l	wrist_dev_l
     11.48000000	     33.31969507	     26.70389005	     30.87213334	   -145.01144214	    797.71263759	      5.92130078	     14.21108973	     36.23518294	     35.87859805	     45.00000000	    -45.00000000	  -2241.58721758	  -2267.55905138	    143.76109224	    179.99999979	   1090.71719490	   -307.41884801	     23.50718345	     12.35773906	      7.10516336	    -45.00000000	    -36.89175642	     45.00000000	    -44.83207737	   2255.19766027	  -4774.37144368	    137.32900814	    155.91567362	    370.26624882	     11.65350596	      8.37061768	    -20.21674305
     11.49000000	     33.47296458	     26.38160088	     30.44859739	   -147.20355554	    798.55751344	      5.92405358	     14.26841581	     36.28387754	     35.96229234	     45.00000000	    -45.00000000	  -2241.67086268	  -2267.41242423	    143.69915382	    179.99999979	   1090.93561375	   -307.55137205	     23.46385034	     12.18870008	      7.05490977	    -45.00000000	    -37.03939103	     45.00000000	    -44.26326456	   2255.37863471	  -4774.30227958	    137.52326654	    155.68605833	    370.33030470	     11.19069973	      8.41450690	    -20.23695897
     11.50000000	     33.63470627	     26.11283608	     29.96408327	   -149.38730487	    799.38935190	      5.93186553	     14.26635531	     36.30939096	     36.10029203	     45.00000000	    -45.00000000	  -2241.76917279	  -2267.35177620	    143.74792422	    179.99999979	   1091.07436635	   -307.68831880	     23.36678177	     11.98078757	      6.95622388	    -45.00000000	    -37.21261114	     45.00000000	    -43.56734429	   2255.47526798	  -4774.31794943	    137.74886051	    155.61850687	    370.34184338	     10.75849477	      8.49217609	    -20.25040397
     11.51000000	     33.77430890	     25.96562342	     29.59680221	   -151.56889378	    800.21361517	      5.94285846	     14.24293169	     36.24968519	     36.02233085	     45.00000000	    -45.00000000	  -2241.90097604	  -2267.10834256	    143.60729995	    179.99999979	   1091.13031794	   -307.82815783	     23.44022399	     12.01021601	      7.08227102	    -45.00000000	    -37.12200812	     45.00000000	    -43.85485051	   2255.62441173	  -4774.05283198	    137.51580536	    155.61715201	    370.37854672	     10.16774040	      8.37901015	    -20.22616267
     11.52000000	     33.92672465	     25.65370099	     29.21808616	   -153.73175180	    801.02691062	      5.95601646	     14.20504689	     36.26025421	     36.14711848	     45.00000000	    -45.00000000	  -2242.01250994	  -2267.02049183	    143.56486133	    179.99999979	   1091.28685639	   -307.98884650	     23.43382492	     11.89277741	      7.06047258	    -45.00000000	    -37.22099327	     45.00000000	    -43.55868745	   2255.77573029	  -4773.98984737	    137.60412402	    155.69457173	    370.32919234	      9.63411951	      8.40115889	    -20.21274500
     11.53000000	     34.07927620	     25.45453611	     28.77768535	   -155.87970725	    801.83291751	      5.97025495	     14.17890388	     36.26725058	     36.20031870	     45.00000000	    -45.00000000	  -2242.13218248	  -2266.89696642	    143.55525499	    179.99999979	   1091.37364742	   -308.13993405	     23.40695377	     11.78729382	      7.04001785	    -45.00000000	    -37.29118874	     45.00000000	    -43.28484274	   2255.87890552	  -4773.91368797	    137.64186355	    155.71257459	    370.37609341	      9.11767128	      8.40844089	    -20.21440703
     11.54000000	     34.21731323	     25.23999998	     28.35792543	   -158.00415123	    802.63011890	      5.98467469	     14.14295265	     36.27832294	     36.27293408	     45.00000000	    -45.00000000	  -2242.25095061	  -2266.81400025	    143.55435213	    179.99999979	   1091.46502351	   -308.28640462	     23.37225119	     11.66624371	      6.99807314	    -45.00000000	    -37.38251164	     45.00000000	    -42.91846385	   2255.98942763	  -4773.86288048	    137.71724960	    155.69539204	    370.39098759	      8.64512101	      8.40413654	    -20.21303905
     11.55000000	     34.34436023	     25.02829723	     27.98958853	   -160.10183847	    803.41810753	      5.99833327	     14.10924574	     36.27717516	     36.30828737	     45.00000000	    -45.00000000	  -2242.36406542	  -2266.69477152	    143.51097869	    179.99999979	   1091.56537135	   -308.42937970	     23.36644115	     11.57907362	      7.00089248	    -45.00000000	    -37.42457490	     45.00000000	    -42.71704050	   2256.12673744	  -4773.77093672	    137.73627979	    155.65342837	    370.40384426	      8.17836755	      8.36218874	    -20.20603426
     11.56000000	     34.46446812	     24.83525094	     27.67327551	   -162.17197597	    804.19677090	      6.01023380	     14.09563954	     36.25496432	     36.27077666	     45.00000000	    -45.00000000	  -2242.45422086	  -2266.48452716	    143.41570171	    179.99999979	   1091.63787475	   -308.56224720	     23.39674298	     11.55658628	      7.08648066	    -45.00000000	    -37.38072815	     45.00000000	    -42.88259032	   2256.25612888	  -4773.57213614	    137.60657364	    155.70683537	    370.39680933	      7.67170668	      8.31163734	    -20.18354695
     11.57000000	     34.58308567	     24.61393494	     27.28262364	   -164.20899381	    804.96316628	      6.02027773	     14.06518884	     36.24737575	     36.32664134	     45.00000000	    -45.00000000	  -2242.54574123	  -2266.39166192	    143.38519840	    179.99999979	   1091.70648113	   -308.68378475	     23.37980553	     11.46830334	      7.07750695	    -45.00000000	    -37.44622382	     45.00000000	    -42.73167065	   2256.36088805	  -4773.46625718	    137.60924520	    155.76539247	    370.39480467	      7.22568735	      8.31843288	    -20.17458339
     11.58000000	     34.70421995	     24.42945019	     26.95194727	   -166.21569698	    805.71664089	      6.02985313	     14.02635628	     36.22993746	     36.33691661	     45.00000000	    -45.00000000	  -2242.64625783	  -2266.27179204	    143.34684647	    179.99999979	   1091.78398549	   -308.79577463	     23.38438755	     11.40389261	      7.10513470	    -45.00000000	    -37.43501895	     45.00000000	    -42.71006004	   2256.47198056	  -4773.36803016	    137.56315880	    155.86518860	    370.39005670	      6.78893309	      8.27921155	    -20.15991867
     11.59000000	     34.81670566	     24.24777424	     26.63364295	   -168.19085436	    806.45408395	      6.04168256	     13.98919894	     36.21743466	     36.35866045	     45.00000000	    -45.00000000	  -2242.73802506	  -2266.16416043	    143.32602522	    179.99999979	   1091.85122889	   -308.90752711	     23.38351945	     11.34068844	      7.12459096	    -45.00000000	    -37.43945781	     45.00000000	    -42.66089555	   2256.57796068	  -4773.27471239	    137.54126950	    155.93337097	    370.38951456	      6.37833194	      8.24483029	    -20.14788756
     11.60000000	     35.03654316	     23.87878257	     26.09854624	   -170.13387209	    807.17344627	      6.05865717	     13.77288723	     36.33923744	     36.61403860	     45.00000000	    -45.00000000	  -2242.94485245	  -2266.21821811	    143.34475494	    179.99999979	   1091.97037517	   -309.01671248	     23.34547819	     11.15174419	      6.89776612	    -45.00000000	    -37.58209454	     45.00000000	    -41.66438157	   2256.68392648	  -4773.51073691	    137.77477830	    156.06338515	    370.31677499	      6.08883503	      8.21738478	    -20.15516704
     11.61000000	     34.98423017	     23.93055727	     26.06784893	   -172.04318247	    807.87246017	      6.08312835	     13.92239279	     36.20108654	     36.39143101	     45.00000000	    -45.00000000	  -2242.92443726	  -2266.03287836	    143.31932459	    179.99999979	   1091.98166839	   -309.15792196	     23.35954258	     11.20813814	      7.11948544	    -45.00000000	    -37.52485087	     45.00000000	    -42.31964288	   2256.81508467	  -4773.12433329	    137.65907881	    155.65003760	    370.47854541	      5.69552391	      8.10614033	    -20.14865595
     11.62000000	     35.14843350	     23.61103900	     25.59151705	   -173.91856293	    808.55289717	      6.11538616	     13.77534870	     36.27720693	     36.54900160	     45.00000000	    -45.00000000	  -2243.02863438	  -2266.07368543	    143.32158158	    179.99999979	   1092.06017849	   -309.28924114	     23.31600550	     11.06574455	      6.95266350	    -45.00000000	    -37.60653893	     45.00000000	    -41.82712983	   2256.86050334	  -4773.23729346	    137.75806734	    156.01791856	    370.37703972	      5.32483268	      8.22106273	    -20.12656520
     11.63000000	     35.31737732	     23.34327999	     25.19822717	   -175.75712971	    809.21498993	      6.15429427	     13.66672755	     36.29831386	     36.61255255	     45.00000000	    -45.00000000	  -2243.14995318	  -2265.94835079	    143.26796377	    179.99999979	   1092.16466879	   -309.42643300	     23.35943315	     11.03373373	      6.93987265	    -45.00000000	    -37.54913866	     45.00000000	    -41.49243591	   2257.02584221	  -4773.26156251	    137.71252353	    155.96560070	    370.38279951	      4.98180786	      8.16752406	    -20.11710714
     11.64000000	     35.35170440	     23.24563567	     24.99318519	   -177.55938680	    809.86246945	      6.19737232	     13.71038590	     36.25748537	     36.55421655	     45.00000000	    -45.00000000	  -2243.19797601	  -2265.90249737	    143.30878680	    179.99999979	   1092.24047782	   -309.60137443	     23.32629118	     10.97813045	      6.97150166	    -45.00000000	    -37.58821460	     45.00000000	    -41.42866989	   2257.13438723	  -4773.12796506	    137.75550465	    155.78330895	    370.46013373	      4.60620865	      8.20838379	    -20.10189073
